# xmcd
#
# Track frame offsets: 
#        150
#        4933
#        22538
#        42632
#        64017
#        80424
#        100942
#        124415
#        144483
#        165146
#        180278
#        200246
#
# Disc length: 2944 seconds
#
# Revision: 2
# Processed by: cddbd v1.5.2PL0 Copyright (c) Steve Scherf et al.
# Submitted via: ExactAudioCopy v0.95a5
#
DISCID=950b7e0c
DTITLE=Chris Tomlin - Burning Lights
DYEAR=2013
DGENRE=Christian Rock
TTITLE0=Burning Lights
TTITLE1=Awake My Soul (with Lecrae)
TTITLE2=Whom Shall I Fear [God of Angel Armies]
TTITLE3=Lay Me Down
TTITLE4=God's Great Dance Floor
TTITLE5=White Flag
TTITLE6=Crown Him [Majesty](with Kari Jobe)
TTITLE7=Jesus, Son of God (with Christy Nockels)
TTITLE8=Sovereign
TTITLE9=Countless Wonders
TTITLE10=Thank You God for Saving Me(with Phil Wickham)
TTITLE11=Shepherd Boy
EXTD=
EXTT0=
EXTT1=
EXTT2=
EXTT3=
EXTT4=
EXTT5=
EXTT6=
EXTT7=
EXTT8=
EXTT9=
EXTT10=
EXTT11=
PLAYORDER=
